<?xml version="1.0" standalone="no"?>
<!DOCTYPE svg PUBLIC "-//W3C//DTD SVG 20010904//EN"
 "http://www.w3.org/TR/2001/REC-SVG-20010904/DTD/svg10.dtd">
<svg version="1.0" xmlns="http://www.w3.org/2000/svg"
 width="240.000000pt" height="240.000000pt" viewBox="0 0 240.000000 240.000000"
 preserveAspectRatio="xMidYMid meet">

<g transform="translate(0.000000,240.000000) scale(0.100000,-0.100000)"
fill="#000000" stroke="none">
<path d="M1000 2161 c-440 -96 -759 -458 -796 -900 -14 -165 39 -409 118 -550
253 -451 775 -641 1246 -455 237 94 424 270 536 505 58 121 86 227 93 359 16
301 -91 578 -303 781 -98 93 -148 127 -266 184 -138 67 -226 87 -398 91 -115
3 -163 0 -230 -15z m438 -57 c637 -161 920 -911 551 -1456 -187 -276 -510
-434 -844 -414 -411 24 -757 310 -867 716 -19 72 -23 109 -23 240 0 131 4 167
23 234 47 163 120 292 234 412 91 95 169 152 289 208 207 97 416 116 637 60z"/>
<path d="M1025 1974 c-79 -17 -209 -75 -282 -125 -155 -106 -262 -256 -319
-446 -23 -75 -27 -107 -27 -218 0 -113 3 -142 27 -220 40 -131 98 -235 185
-328 114 -120 219 -185 378 -233 120 -37 300 -39 415 -6 291 83 489 275 580
562 20 64 23 96 23 220 0 163 -12 221 -70 347 -94 202 -281 365 -500 433 -94
30 -308 37 -410 14z m358 -279 c86 -22 147 -57 200 -114 61 -65 89 -127 95
-213 l5 -68 -146 0 -147 0 -5 25 c-3 14 -7 36 -10 48 -26 128 -237 145 -306
24 -20 -36 -24 -58 -27 -157 -2 -67 1 -133 7 -157 31 -115 151 -166 261 -110
45 22 67 53 87 122 l8 30 130 3 c71 1 134 1 140 -2 21 -8 -2 -135 -35 -203
-69 -140 -200 -204 -420 -204 -255 0 -403 91 -472 290 -20 57 -23 85 -22 211
0 123 4 154 22 205 53 144 147 230 295 270 71 19 267 19 340 0z"/>
</g>
</svg>
