<?xml version="1.0" standalone="no"?>
<!DOCTYPE svg PUBLIC "-//W3C//DTD SVG 20010904//EN"
 "http://www.w3.org/TR/2001/REC-SVG-20010904/DTD/svg10.dtd">
<svg version="1.0" xmlns="http://www.w3.org/2000/svg"
 width="223.000000pt" height="223.000000pt" viewBox="0 0 223.000000 223.000000"
 preserveAspectRatio="xMidYMid meet">

<g transform="translate(0.000000,223.000000) scale(0.100000,-0.100000)"
fill="#000000" stroke="none">
<path d="M955 2125 c-210 -40 -382 -131 -535 -284 -378 -379 -386 -984 -19
-1385 117 -129 297 -235 479 -284 130 -35 340 -37 473 -4 479 118 807 556 773
1031 -32 434 -333 801 -744 908 -124 32 -310 40 -427 18z m370 -54 c377 -78
667 -378 741 -768 22 -116 15 -306 -16 -412 -93 -326 -342 -575 -675 -672 -70
-21 -101 -24 -245 -24 -188 0 -257 15 -408 85 -142 67 -292 195 -382 325 -45
65 -104 196 -130 285 -27 94 -39 318 -21 413 63 332 287 603 601 727 149 59
367 76 535 41z"/>
<path d="M1015 1944 c-264 -43 -495 -210 -609 -441 -62 -126 -81 -209 -81
-363 1 -162 14 -221 86 -367 184 -374 638 -542 1027 -381 182 76 327 209 411
381 72 146 85 205 85 367 0 162 -13 221 -84 365 -100 203 -291 358 -515 419
-60 17 -263 29 -320 20z m44 -621 c15 -54 14 -59 -10 -29 -29 37 -81 56 -155
56 l-64 0 0 -102 0 -101 25 23 c24 22 27 23 79 10 30 -7 61 -10 70 -7 22 9 20
-9 -4 -33 -23 -23 -34 -24 -94 -8 -67 18 -78 4 -74 -91 l3 -76 52 -3 c79 -5
125 12 169 60 21 23 35 35 32 26 -4 -9 -12 -34 -19 -57 l-12 -41 -161 0 c-114
1 -156 4 -143 11 15 9 17 29 17 194 0 165 -2 185 -17 194 -13 7 27 10 139 11
l157 0 10 -37z m164 30 c-7 -2 -13 -11 -13 -19 0 -18 109 -336 119 -346 4 -4
33 66 64 157 47 131 56 168 48 183 -6 11 -16 23 -23 25 -7 3 12 5 42 5 30 0
48 -2 38 -5 -19 -5 -15 6 -88 -203 -32 -91 -61 -173 -65 -182 -5 -12 -18 -18
-39 -18 l-31 0 -65 187 c-36 103 -73 195 -82 205 -17 17 -15 18 45 17 34 0 56
-3 50 -6z"/>
</g>
</svg>
